<svg 
 xmlns="http://www.w3.org/2000/svg"
 xmlns:xlink="http://www.w3.org/1999/xlink"
 width="6.972in" height="6.972in">
<path fill-rule="evenodd"  fill="rgb(0, 0, 0)"
 d="M486.086,279.979 C483.867,285.875 478.267,289.511 472.318,289.511 C470.597,289.511 468.847,289.207 467.141,288.565 C459.539,285.704 455.695,277.223 458.555,269.620 C467.735,245.225 472.586,218.104 472.586,191.191 C472.586,156.545 464.746,123.363 449.286,92.566 C445.641,85.307 448.571,76.468 455.831,72.823 C463.088,69.179 471.928,72.110 475.572,79.368 C493.108,114.297 502.000,151.921 502.000,191.191 C502.000,221.605 496.497,252.307 486.086,279.979 ZM425.589,238.807 C424.709,238.807 423.816,238.727 422.919,238.563 C414.929,237.098 409.641,229.434 411.107,221.444 C412.817,212.122 413.758,201.378 413.758,191.191 C413.758,178.435 412.263,165.734 409.314,153.442 C407.419,145.544 412.285,137.605 420.184,135.710 C428.087,133.815 436.021,138.682 437.916,146.580 C441.403,161.116 443.172,176.126 443.172,191.191 C443.172,203.104 442.059,215.733 440.038,226.750 C438.737,233.843 432.550,238.807 425.589,238.807 ZM472.586,399.051 C472.586,423.379 452.793,443.172 428.465,443.172 L323.056,443.172 C316.223,476.696 286.512,502.000 251.000,502.000 C215.488,502.000 185.776,476.696 178.944,443.172 L73.535,443.172 C49.207,443.172 29.414,423.379 29.414,399.051 C29.414,376.991 45.687,358.662 66.858,355.435 C101.486,319.383 117.656,281.534 117.656,236.725 L117.656,197.231 C117.656,163.665 129.776,130.997 151.782,105.248 C167.030,87.409 185.978,74.204 206.879,66.541 L206.879,44.121 C206.879,19.793 226.672,0.000 251.000,0.000 C275.328,0.000 295.121,19.793 295.121,44.121 L295.121,66.394 C311.923,72.268 327.563,81.463 340.960,93.644 C368.532,118.710 384.344,154.265 384.344,191.191 L384.344,236.726 C384.344,281.535 400.514,319.384 435.142,355.435 C456.313,358.662 472.586,376.991 472.586,399.051 ZM251.000,472.586 C270.173,472.586 286.520,460.289 292.590,443.172 L209.409,443.172 C215.480,460.289 231.827,472.586 251.000,472.586 ZM265.707,44.121 C265.707,36.012 259.109,29.414 251.000,29.414 C242.891,29.414 236.293,36.012 236.293,44.121 L236.293,59.638 C236.877,59.574 237.461,59.505 238.046,59.449 C247.317,58.564 256.586,58.661 265.707,59.685 L265.707,44.121 ZM354.930,236.726 L354.930,191.191 C354.930,162.533 342.626,134.912 321.173,115.407 C299.448,95.655 270.167,85.930 240.838,88.729 C188.258,93.745 147.070,141.404 147.070,197.231 L147.070,236.725 C147.070,280.933 133.958,319.155 106.194,354.930 L395.806,354.930 C368.041,319.155 354.930,280.933 354.930,236.726 ZM73.540,384.344 C73.537,384.344 73.535,384.344 73.532,384.344 C65.425,384.345 58.828,390.942 58.828,399.051 C58.828,407.160 65.426,413.758 73.535,413.758 L428.465,413.758 C436.574,413.758 443.172,407.160 443.172,399.051 C443.172,390.941 436.574,384.344 428.465,384.344 L73.540,384.344 ZM88.242,191.191 C88.242,201.378 89.183,212.122 90.893,221.445 C92.358,229.434 87.070,237.098 79.081,238.564 C78.185,238.728 77.291,238.808 76.411,238.808 C69.449,238.808 63.263,233.844 61.962,226.751 C59.941,215.733 58.828,203.104 58.828,191.191 C58.828,176.126 60.597,161.116 64.084,146.580 C65.980,138.682 73.918,133.816 81.816,135.710 C89.715,137.605 94.581,145.544 92.687,153.442 C89.737,165.734 88.242,178.435 88.242,191.191 ZM29.414,191.191 C29.414,218.104 34.265,245.225 43.445,269.620 C46.305,277.223 42.460,285.705 34.859,288.565 C33.153,289.206 31.402,289.511 29.682,289.511 C23.732,289.511 18.133,285.875 15.914,279.979 C5.503,252.307 0.000,221.605 0.000,191.191 C0.000,151.921 8.892,114.297 26.428,79.368 C30.073,72.110 38.913,69.180 46.169,72.823 C53.429,76.468 56.359,85.307 52.715,92.566 C37.254,123.363 29.414,156.545 29.414,191.191 Z"/>
</svg>