<svg 
 xmlns="http://www.w3.org/2000/svg"
 xmlns:xlink="http://www.w3.org/1999/xlink"
 width="7in" height="6.389in">
<path fill-rule="evenodd"  fill="rgb(0, 0, 0)"
 d="M491.726,414.900 C475.357,443.139 446.245,460.000 413.817,460.000 L89.749,460.000 C57.425,460.000 28.520,443.346 12.358,415.624 C-4.011,387.591 -4.115,353.973 12.047,325.734 L174.496,44.893 C190.554,16.860 219.563,-0.000 252.093,-0.000 C284.625,-0.000 313.634,16.757 329.692,44.997 L491.933,325.527 C508.095,353.456 507.992,386.867 491.726,414.900 ZM456.812,345.905 L294.467,65.167 C285.661,49.755 269.810,40.548 252.094,40.548 C234.274,40.548 218.527,49.651 209.720,65.064 L47.272,345.802 C38.362,361.318 38.466,379.730 47.375,395.143 C56.182,410.349 72.033,419.348 89.645,419.348 L413.713,419.348 C431.533,419.348 447.488,410.142 456.501,394.625 C465.411,379.213 465.515,361.007 456.812,345.905 ZM271.985,267.911 C271.364,274.427 271.364,280.324 271.364,286.737 C270.846,297.391 262.558,305.564 251.990,305.564 C241.422,305.564 233.238,297.909 232.616,287.358 C230.856,256.222 229.094,225.707 227.333,194.571 C226.711,186.400 226.193,178.124 225.571,169.953 C225.571,156.402 233.238,145.230 245.567,141.713 C257.896,138.817 270.224,144.713 275.508,156.299 C277.269,160.436 277.891,164.574 277.891,169.228 C277.269,182.158 276.129,195.089 275.508,208.019 C274.368,227.983 273.125,247.947 271.985,267.911 ZM251.990,323.252 C266.184,323.252 277.891,334.940 277.269,349.732 C277.891,363.180 265.562,374.972 251.990,374.972 C237.900,374.972 226.089,363.180 226.089,349.112 C226.089,335.044 237.900,323.252 251.990,323.252 Z"/>
</svg>