<svg 
 xmlns="http://www.w3.org/2000/svg"
 xmlns:xlink="http://www.w3.org/1999/xlink"
 width="7in" height="7in">
<path fill-rule="evenodd"  fill="rgb(0, 0, 0)"
 d="M252.000,503.999 C112.871,503.999 0.001,391.129 0.001,252.000 C0.001,112.871 112.871,0.001 252.000,0.001 C391.129,0.001 503.999,112.871 503.999,252.000 C503.999,391.129 391.129,503.999 252.000,503.999 ZM252.000,33.171 C131.298,33.171 33.171,131.298 33.171,252.000 C33.171,372.701 131.298,470.829 252.000,470.829 C372.701,470.829 470.829,372.701 470.829,252.000 C470.829,131.298 372.701,33.171 252.000,33.171 ZM287.473,382.376 L216.526,382.376 C209.616,382.376 204.548,376.848 204.548,370.398 L204.548,345.520 C204.548,338.610 210.077,333.542 216.526,333.542 L226.201,333.542 L226.201,257.067 L216.526,257.067 C209.616,257.067 204.548,251.539 204.548,245.089 L204.548,220.212 C204.548,213.302 210.077,208.234 216.526,208.234 L264.899,208.234 C271.810,208.234 276.877,213.762 276.877,220.212 L276.877,333.082 L287.473,333.082 C293.923,333.082 299.451,338.610 299.451,345.520 L299.451,370.398 C299.451,377.308 293.923,382.376 287.473,382.376 ZM279.181,163.547 C278.720,164.007 278.720,164.007 278.720,164.468 C278.259,166.311 277.338,167.693 276.416,169.075 C275.495,170.457 274.574,171.839 273.192,173.221 L272.731,173.682 C271.349,175.064 269.967,176.446 268.585,177.368 C266.742,178.750 264.899,179.671 263.056,180.592 L262.596,180.592 C261.214,181.514 259.371,181.974 257.528,182.435 C255.685,182.896 253.382,182.896 251.539,182.896 C249.696,182.896 247.854,182.896 245.550,182.435 C243.247,181.974 241.404,181.514 239.561,180.592 C237.258,180.132 235.415,178.750 234.033,177.828 C232.190,176.446 230.808,175.064 229.426,173.682 C228.504,172.300 227.122,170.918 226.201,169.536 C225.280,168.154 224.358,166.311 223.437,164.468 C222.976,162.625 222.055,160.783 221.594,157.097 C221.133,155.254 221.133,152.951 221.133,151.108 C221.133,149.265 221.133,147.423 221.594,145.119 C222.055,143.276 222.515,141.434 223.437,139.591 C224.358,137.748 225.280,135.905 226.201,134.523 C227.122,133.141 228.504,131.759 229.887,130.377 C231.269,128.995 232.651,128.073 234.493,126.691 C235.876,125.770 237.718,124.849 239.561,123.927 L240.022,123.927 C241.865,123.006 243.707,122.545 245.550,122.084 C247.393,121.624 249.696,121.624 251.539,121.624 C253.382,121.624 255.225,121.624 257.528,122.084 C259.371,122.545 261.214,123.006 263.056,123.927 C264.899,124.849 266.281,125.770 268.124,126.691 C269.967,128.073 271.349,128.995 272.731,130.377 C273.192,130.838 273.192,130.838 273.652,131.298 C275.956,133.602 277.799,136.366 279.181,139.591 C280.102,141.894 280.563,143.737 281.023,145.580 C281.484,147.423 281.484,149.726 281.484,151.569 C281.484,153.412 281.484,155.715 281.023,157.558 C280.563,159.401 280.102,161.704 279.181,163.547 Z"/>
</svg>