<?xml version="1.0" encoding="utf-8"?>
<!-- Generator: Adobe Illustrator 23.0.3, SVG Export Plug-In . SVG Version: 6.00 Build 0)  -->
<svg version="1.1" xmlns="http://www.w3.org/2000/svg" xmlns:xlink="http://www.w3.org/1999/xlink" x="0px" y="0px"
	 viewBox="0 0 154.2 148" style="enable-background:new 0 0 154.2 148;" xml:space="preserve">
<style type="text/css">
	.st0{display:none;}
	.st1{display:inline;}
	.st2{clip-path:url(#SVGID_2_);}
	.st3{fill:#ED1C24;}
	.st4{fill:#35B44A;}
</style>
<g id="Layer_1" class="st0">
	<g class="st1">
		<g>
			<defs>
				<rect id="SVGID_1_" x="66.7" y="51.5" width="76.8" height="77"/>
			</defs>
			<clipPath id="SVGID_2_">
				<use xlink:href="#SVGID_1_"  style="overflow:visible;"/>
			</clipPath>
			<path class="st2" d="M116.9,89.9l26-26c0.6-0.6,0.6-1.6,0-2.3l-9.6-9.6c-0.3-0.3-0.7-0.5-1.1-0.5c-0.4,0-0.8,0.2-1.1,0.5l-26,26
				L79,52c-0.6-0.6-1.7-0.6-2.3,0l-9.6,9.6c-0.6,0.6-0.6,1.6,0,2.3l26,26l-26,26c-0.6,0.6-0.6,1.6,0,2.3l9.6,9.6
				c0.3,0.3,0.7,0.5,1.1,0.5c0.4,0,0.8-0.2,1.1-0.5l26-26l26,26c0.3,0.3,0.7,0.5,1.1,0.5c0.4,0,0.8-0.2,1.1-0.5l9.6-9.6
				c0.6-0.6,0.6-1.6,0-2.3L116.9,89.9z M116.9,89.9"/>
		</g>
	</g>
</g>
<g id="Layer_2" class="st0">
	
		<image style="display:inline;overflow:visible;" width="13" height="15" xlink:href="D6A9241D.jpg"  transform="matrix(0.9999 0 0 0.9999 245.6552 33.5172)">
	</image>
</g>
<g id="Layer_1_copy" class="st0">
	<g class="st1">
		<g>
			<g>
				<path class="st3" d="M94.5,73.7l53.9-70.1l-11,0.1L84.9,59.5L39,3.3H7.5l65.1,70.4L7.5,144.1l10.9,0.1l32.5-0.1L85.4,89l42,44.2
					h10.1L94.5,73.7z M101,71.3"/>
			</g>
		</g>
	</g>
</g>
<g id="Layer_4" class="st0">
	
		<image style="display:inline;overflow:visible;" width="68" height="67" xlink:href="D6A9241F.jpg"  transform="matrix(2.1817 0 0 2.1817 2.8191 1.41)">
	</image>
</g>
<g id="Layer_5">
	<path class="st4" d="M16.6,70.6l-5.3,6.1c-0.8,0.9-1.3,1.9-1.7,2.9L3.2,96.6c-0.3,0.7-0.1,1.5,0.5,2l48.1,46.6
		c0.5,0.5,1.2,0.4,1.6-0.1L150.8,8.4c0.2-0.3,0.2-0.8,0-1.1L146.5,2c-0.3-0.4-0.9-0.4-1.2,0L51.6,115c-0.4,0.5-1.2,0.5-1.5-0.1
		L18.1,70.6C17.7,70.1,17,70.1,16.6,70.6z"/>
</g>
</svg>
